<svg width="1024" height="1024" viewBox="0 0 1024 1024" fill="none" xmlns="http://www.w3.org/2000/svg">
  <!-- 
    Version 1: Balanced Organic Curve
    To get the transparent version, hide or remove the group with id="container"
  -->
  <defs>
    <linearGradient id="gradOrganic" x1="0%" y1="100%" x2="100%" y2="0%">
      <stop offset="0%" stop-color="#7EE8C2"/>
      <stop offset="100%" stop-color="#74C8FF"/>
    </linearGradient>
    <filter id="softGlow" x="-50%" y="-50%" width="200%" height="200%">
      <feGaussianBlur stdDeviation="20" result="blur"/>
      <feFlood flood-color="#00FFD0" flood-opacity="0.15" result="color"/>
      <feComposite in="color" in2="blur" operator="in" result="coloredBlur"/>
      <feMerge>
        <feMergeNode in="coloredBlur"/>
        <feMergeNode in="SourceGraphic"/>
      </feMerge>
    </filter>
  </defs>

  <g id="container">
    <circle cx="512" cy="512" r="480" fill="#0A0F18"/>
    <circle cx="512" cy="512" r="460" stroke="#00FFD0" stroke-opacity="0.03" stroke-width="4"/>
  </g>

  <g id="seedling" filter="url(#softGlow)">
    <!-- Stem -->
    <path d="M500 800 C500 800 510 600 550 400 C555 380 535 380 530 400 C490 600 480 800 480 800 L500 800 Z" fill="url(#gradOrganic)"/>
    <!-- Left Leaf -->
    <path d="M520 550 C460 540 360 500 360 400 C360 350 460 450 520 500 Z" fill="url(#gradOrganic)"/>
    <!-- Right Leaf -->
    <path d="M540 450 C590 440 690 400 690 300 C690 250 590 350 545 400 Z" fill="url(#gradOrganic)"/>
  </g>
</svg>