<svg width="1024" height="1024" viewBox="0 0 1024 1024" fill="none" xmlns="http://www.w3.org/2000/svg">
  <!-- 
    Version 9: Breezy
    To get the transparent version, hide or remove the group with id="container"
  -->
  <defs>
    <linearGradient id="gradOrganic" x1="0%" y1="100%" x2="100%" y2="0%">
      <stop offset="0%" stop-color="#7EE8C2"/>
      <stop offset="100%" stop-color="#74C8FF"/>
    </linearGradient>
    <filter id="softGlow" x="-50%" y="-50%" width="200%" height="200%">
      <feGaussianBlur stdDeviation="20" result="blur"/>
      <feFlood flood-color="#00FFD0" flood-opacity="0.15" result="color"/>
      <feComposite in="color" in2="blur" operator="in" result="coloredBlur"/>
      <feMerge>
        <feMergeNode in="coloredBlur"/>
        <feMergeNode in="SourceGraphic"/>
      </feMerge>
    </filter>
  </defs>

  <g id="container">
    <circle cx="512" cy="512" r="480" fill="#0A0F18"/>
    <circle cx="512" cy="512" r="460" stroke="#00FFD0" stroke-opacity="0.03" stroke-width="4"/>
  </g>

  <g id="seedling" filter="url(#softGlow)">
    <!-- Stem -->
    <path d="M480 800 C480 800 550 500 650 350 C655 340 640 340 635 350 C535 500 500 800 500 800 L480 800 Z" fill="url(#gradOrganic)"/>
    <!-- Left Leaf -->
    <path d="M560 500 C520 500 420 480 420 400 C420 350 520 450 570 480 Z" fill="url(#gradOrganic)"/>
    <!-- Right Leaf -->
    <path d="M620 400 C660 400 760 380 760 300 C760 250 660 350 630 380 Z" fill="url(#gradOrganic)"/>
  </g>
</svg>