<svg width="1024" height="1024" viewBox="0 0 1024 1024" fill="none" xmlns="http://www.w3.org/2000/svg">
  <!-- 
    Version 2: Leaning Left
    To get the transparent version, hide or remove the group with id="container"
  -->
  <defs>
    <linearGradient id="gradOrganic" x1="0%" y1="100%" x2="100%" y2="0%">
      <stop offset="0%" stop-color="#7EE8C2"/>
      <stop offset="100%" stop-color="#74C8FF"/>
    </linearGradient>
    <filter id="softGlow" x="-50%" y="-50%" width="200%" height="200%">
      <feGaussianBlur stdDeviation="20" result="blur"/>
      <feFlood flood-color="#00FFD0" flood-opacity="0.15" result="color"/>
      <feComposite in="color" in2="blur" operator="in" result="coloredBlur"/>
      <feMerge>
        <feMergeNode in="coloredBlur"/>
        <feMergeNode in="SourceGraphic"/>
      </feMerge>
    </filter>
  </defs>

  <g id="container">
    <circle cx="512" cy="512" r="480" fill="#0A0F18"/>
    <circle cx="512" cy="512" r="460" stroke="#00FFD0" stroke-opacity="0.03" stroke-width="4"/>
  </g>

  <g id="seedling" filter="url(#softGlow)">
    <!-- Stem -->
    <path d="M540 800 C540 800 550 600 460 380 C455 360 435 360 440 380 C520 600 520 800 520 800 L540 800 Z" fill="url(#gradOrganic)"/>
    <!-- Left Leaf -->
    <path d="M450 420 C390 400 260 350 260 280 C260 250 360 350 455 390 Z" fill="url(#gradOrganic)"/>
    <!-- Right Leaf -->
    <path d="M490 550 C560 540 660 520 660 450 C660 420 560 500 495 520 Z" fill="url(#gradOrganic)"/>
  </g>
</svg>