<svg width="1024" height="1024" viewBox="0 0 1024 1024" fill="none" xmlns="http://www.w3.org/2000/svg">
  <!-- 
    Version 5: Stout & Lush
    To get the transparent version, hide or remove the group with id="container"
  -->
  <defs>
    <linearGradient id="gradOrganic" x1="0%" y1="100%" x2="100%" y2="0%">
      <stop offset="0%" stop-color="#7EE8C2"/>
      <stop offset="100%" stop-color="#74C8FF"/>
    </linearGradient>
    <filter id="softGlow" x="-50%" y="-50%" width="200%" height="200%">
      <feGaussianBlur stdDeviation="20" result="blur"/>
      <feFlood flood-color="#00FFD0" flood-opacity="0.15" result="color"/>
      <feComposite in="color" in2="blur" operator="in" result="coloredBlur"/>
      <feMerge>
        <feMergeNode in="coloredBlur"/>
        <feMergeNode in="SourceGraphic"/>
      </feMerge>
    </filter>
  </defs>

  <g id="container">
    <circle cx="512" cy="512" r="480" fill="#0A0F18"/>
    <circle cx="512" cy="512" r="460" stroke="#00FFD0" stroke-opacity="0.03" stroke-width="4"/>
  </g>

  <g id="seedling" filter="url(#softGlow)">
    <!-- Stem -->
    <path d="M500 780 C500 780 480 580 520 430 C525 410 545 410 540 430 C510 580 530 780 530 780 L500 780 Z" fill="url(#gradOrganic)"/>
    <!-- Left Leaf -->
    <path d="M510 580 C450 580 300 530 300 380 C300 280 450 480 520 530 Z" fill="url(#gradOrganic)"/>
    <!-- Right Leaf -->
    <path d="M530 510 C600 510 750 450 750 330 C750 230 600 430 540 470 Z" fill="url(#gradOrganic)"/>
  </g>
</svg>