<svg width="1024" height="1024" viewBox="0 0 1024 1024" fill="none" xmlns="http://www.w3.org/2000/svg">
  <!-- 
    Version 8: Asymmetrical Height
    To get the transparent version, hide or remove the group with id="container"
  -->
  <defs>
    <linearGradient id="gradOrganic" x1="0%" y1="100%" x2="100%" y2="0%">
      <stop offset="0%" stop-color="#7EE8C2"/>
      <stop offset="100%" stop-color="#74C8FF"/>
    </linearGradient>
    <filter id="softGlow" x="-50%" y="-50%" width="200%" height="200%">
      <feGaussianBlur stdDeviation="20" result="blur"/>
      <feFlood flood-color="#00FFD0" flood-opacity="0.15" result="color"/>
      <feComposite in="color" in2="blur" operator="in" result="coloredBlur"/>
      <feMerge>
        <feMergeNode in="coloredBlur"/>
        <feMergeNode in="SourceGraphic"/>
      </feMerge>
    </filter>
  </defs>

  <g id="container">
    <circle cx="512" cy="512" r="480" fill="#0A0F18"/>
    <circle cx="512" cy="512" r="460" stroke="#00FFD0" stroke-opacity="0.03" stroke-width="4"/>
  </g>

  <g id="seedling" filter="url(#softGlow)">
    <!-- Stem -->
    <path d="M500 800 C500 800 500 500 520 300 C525 280 540 280 535 300 C515 500 520 800 520 800 L500 800 Z" fill="url(#gradOrganic)"/>
    <!-- Lower Left Leaf -->
    <path d="M505 550 C450 540 350 500 350 400 C350 350 450 500 510 530 Z" fill="url(#gradOrganic)"/>
    <!-- Higher Right Leaf -->
    <path d="M525 350 C570 340 650 300 650 220 C650 180 570 300 530 330 Z" fill="url(#gradOrganic)"/>
  </g>
</svg>